<?xml version="1.0" encoding="UTF-8" standalone="no"?>
<!DOCTYPE svg PUBLIC "-//W3C//DTD SVG 1.1//EN"
 "http://www.w3.org/Graphics/SVG/1.1/DTD/svg11.dtd">
<!-- Generated by graphviz version 2.47.0 (20210316.0004)
 -->
<!-- Title: dependencies Pages: 1 -->
<svg width="554pt" height="211pt"
 viewBox="0.00 0.00 554.00 211.00" xmlns="http://www.w3.org/2000/svg" xmlns:xlink="http://www.w3.org/1999/xlink">
<g id="graph0" class="graph" transform="scale(1 1) rotate(0) translate(4 207)">
<title>dependencies</title>
<polygon fill="white" stroke="transparent" points="-4,4 -4,-207 550,-207 550,4 -4,4"/>
<text text-anchor="start" x="252.01" y="-42.4" font-family="Times-12" font-weight="bold" font-size="14.00">Legend</text>
<polygon fill="#ffffb3" stroke="transparent" points="39,-10 39,-30 59,-30 59,-10 39,-10"/>
<text text-anchor="start" x="62.63" y="-15.4" font-family="Times-12" font-size="14.00"> &#160;Declarations</text>
<polygon fill="#8dd3c7" stroke="transparent" points="152,-10 152,-30 172,-30 172,-10 152,-10"/>
<text text-anchor="start" x="175.73" y="-15.4" font-family="Times-12" font-size="14.00"> &#160;Module</text>
<polygon fill="#80b1d3" stroke="transparent" points="238,-10 238,-30 258,-30 258,-10 238,-10"/>
<text text-anchor="start" x="261.78" y="-15.4" font-family="Times-12" font-size="14.00"> &#160;Bootstrap</text>
<polygon fill="#fdb462" stroke="transparent" points="335,-10 335,-30 355,-30 355,-10 335,-10"/>
<text text-anchor="start" x="358.67" y="-15.4" font-family="Times-12" font-size="14.00"> &#160;Providers</text>
<polygon fill="#fb8072" stroke="transparent" points="431,-10 431,-30 451,-30 451,-10 431,-10"/>
<text text-anchor="start" x="454.73" y="-15.4" font-family="Times-12" font-size="14.00"> &#160;Exports</text>
<g id="clust1" class="cluster">
<title>cluster_DonationsModule</title>
<polygon fill="none" stroke="black" stroke-dasharray="1,5" points="8,-70 8,-195 538,-195 538,-70 8,-70"/>
</g>
<g id="clust3" class="cluster">
<title>cluster_DonationsModule_imports</title>
<polygon fill="none" stroke="black" points="200,-78 200,-130 530,-130 530,-78 200,-78"/>
</g>
<g id="clust6" class="cluster">
<title>cluster_DonationsModule_providers</title>
<polygon fill="none" stroke="black" points="16,-78 16,-130 192,-130 192,-78 16,-78"/>
</g>
<!-- AuthModule -->
<g id="node1" class="node">
<title>AuthModule</title>
<polygon fill="#8dd3c7" stroke="black" points="521.55,-122 518.55,-126 497.55,-126 494.55,-122 434.45,-122 434.45,-86 521.55,-86 521.55,-122"/>
<text text-anchor="middle" x="478" y="-99.8" font-family="Times,serif" font-size="14.00">AuthModule</text>
</g>
<!-- DonationsModule -->
<g id="node4" class="node">
<title>DonationsModule</title>
<polygon fill="#8dd3c7" stroke="black" points="368.6,-187 365.6,-191 344.6,-191 341.6,-187 251.4,-187 251.4,-151 368.6,-151 368.6,-187"/>
<text text-anchor="middle" x="310" y="-164.8" font-family="Times,serif" font-size="14.00">DonationsModule</text>
</g>
<!-- AuthModule&#45;&gt;DonationsModule -->
<g id="edge1" class="edge">
<title>AuthModule&#45;&gt;DonationsModule</title>
<path fill="none" stroke="black" d="M478,-122.11C478,-141.34 478,-169 478,-169 478,-169 378.76,-169 378.76,-169"/>
<polygon fill="black" stroke="black" points="378.76,-165.5 368.76,-169 378.76,-172.5 378.76,-165.5"/>
</g>
<!-- PrismaModule -->
<g id="node2" class="node">
<title>PrismaModule</title>
<polygon fill="#8dd3c7" stroke="black" points="416.43,-122 413.43,-126 392.43,-126 389.43,-122 317.57,-122 317.57,-86 416.43,-86 416.43,-122"/>
<text text-anchor="middle" x="367" y="-99.8" font-family="Times,serif" font-size="14.00">PrismaModule</text>
</g>
<!-- PrismaModule&#45;&gt;DonationsModule -->
<g id="edge2" class="edge">
<title>PrismaModule&#45;&gt;DonationsModule</title>
<path fill="none" stroke="black" d="M343.17,-122.11C343.17,-122.11 343.17,-140.99 343.17,-140.99"/>
<polygon fill="black" stroke="black" points="339.67,-140.99 343.17,-150.99 346.67,-140.99 339.67,-140.99"/>
</g>
<!-- UsersModule -->
<g id="node3" class="node">
<title>UsersModule</title>
<polygon fill="#8dd3c7" stroke="black" points="299.92,-122 296.92,-126 275.92,-126 272.92,-122 208.08,-122 208.08,-86 299.92,-86 299.92,-122"/>
<text text-anchor="middle" x="254" y="-99.8" font-family="Times,serif" font-size="14.00">UsersModule</text>
</g>
<!-- UsersModule&#45;&gt;DonationsModule -->
<g id="edge3" class="edge">
<title>UsersModule&#45;&gt;DonationsModule</title>
<path fill="none" stroke="black" d="M275.58,-122.11C275.58,-122.11 275.58,-140.99 275.58,-140.99"/>
<polygon fill="black" stroke="black" points="272.08,-140.99 275.58,-150.99 279.08,-140.99 272.08,-140.99"/>
</g>
<!-- DonationsService -->
<g id="node5" class="node">
<title>DonationsService</title>
<ellipse fill="#fdb462" stroke="black" cx="104" cy="-104" rx="79.87" ry="18"/>
<text text-anchor="middle" x="104" y="-99.8" font-family="Times,serif" font-size="14.00">DonationsService</text>
</g>
<!-- DonationsService&#45;&gt;DonationsModule -->
<g id="edge4" class="edge">
<title>DonationsService&#45;&gt;DonationsModule</title>
<path fill="none" stroke="black" d="M104,-122.11C104,-141.34 104,-169 104,-169 104,-169 241.24,-169 241.24,-169"/>
<polygon fill="black" stroke="black" points="241.24,-172.5 251.24,-169 241.24,-165.5 241.24,-172.5"/>
</g>
</g>
</svg>
