<?xml version="1.0" encoding="UTF-8" standalone="no"?>
<!DOCTYPE svg PUBLIC "-//W3C//DTD SVG 1.1//EN"
 "http://www.w3.org/Graphics/SVG/1.1/DTD/svg11.dtd">
<!-- Generated by graphviz version 2.47.0 (20210316.0004)
 -->
<!-- Title: dependencies Pages: 1 -->
<svg width="504pt" height="284pt"
 viewBox="0.00 0.00 504.00 284.00" xmlns="http://www.w3.org/2000/svg" xmlns:xlink="http://www.w3.org/1999/xlink">
<g id="graph0" class="graph" transform="scale(1 1) rotate(0) translate(4 280)">
<title>dependencies</title>
<polygon fill="white" stroke="transparent" points="-4,4 -4,-280 500,-280 500,4 -4,4"/>
<text text-anchor="start" x="227.01" y="-42.4" font-family="Times-12" font-weight="bold" font-size="14.00">Legend</text>
<polygon fill="#ffffb3" stroke="transparent" points="14,-10 14,-30 34,-30 34,-10 14,-10"/>
<text text-anchor="start" x="37.63" y="-15.4" font-family="Times-12" font-size="14.00"> &#160;Declarations</text>
<polygon fill="#8dd3c7" stroke="transparent" points="127,-10 127,-30 147,-30 147,-10 127,-10"/>
<text text-anchor="start" x="150.73" y="-15.4" font-family="Times-12" font-size="14.00"> &#160;Module</text>
<polygon fill="#80b1d3" stroke="transparent" points="213,-10 213,-30 233,-30 233,-10 213,-10"/>
<text text-anchor="start" x="236.78" y="-15.4" font-family="Times-12" font-size="14.00"> &#160;Bootstrap</text>
<polygon fill="#fdb462" stroke="transparent" points="310,-10 310,-30 330,-30 330,-10 310,-10"/>
<text text-anchor="start" x="333.67" y="-15.4" font-family="Times-12" font-size="14.00"> &#160;Providers</text>
<polygon fill="#fb8072" stroke="transparent" points="406,-10 406,-30 426,-30 426,-10 406,-10"/>
<text text-anchor="start" x="429.73" y="-15.4" font-family="Times-12" font-size="14.00"> &#160;Exports</text>
<g id="clust1" class="cluster">
<title>cluster_CentersModule</title>
<polygon fill="none" stroke="black" stroke-dasharray="1,5" points="102,-70 102,-268 394,-268 394,-70 102,-70"/>
</g>
<g id="clust4" class="cluster">
<title>cluster_CentersModule_exports</title>
<polygon fill="none" stroke="black" points="179,-208 179,-260 299,-260 299,-208 179,-208"/>
</g>
<g id="clust6" class="cluster">
<title>cluster_CentersModule_providers</title>
<polygon fill="none" stroke="black" points="232,-78 232,-130 386,-130 386,-78 232,-78"/>
</g>
<g id="clust3" class="cluster">
<title>cluster_CentersModule_imports</title>
<polygon fill="none" stroke="black" points="110,-78 110,-130 224,-130 224,-78 110,-78"/>
</g>
<!-- PrismaModule -->
<g id="node1" class="node">
<title>PrismaModule</title>
<polygon fill="#8dd3c7" stroke="black" points="216.43,-122 213.43,-126 192.43,-126 189.43,-122 117.57,-122 117.57,-86 216.43,-86 216.43,-122"/>
<text text-anchor="middle" x="167" y="-99.8" font-family="Times,serif" font-size="14.00">PrismaModule</text>
</g>
<!-- CentersModule -->
<g id="node2" class="node">
<title>CentersModule</title>
<polygon fill="#8dd3c7" stroke="black" points="290.31,-187 287.31,-191 266.31,-191 263.31,-187 187.69,-187 187.69,-151 290.31,-151 290.31,-187"/>
<text text-anchor="middle" x="239" y="-164.8" font-family="Times,serif" font-size="14.00">CentersModule</text>
</g>
<!-- PrismaModule&#45;&gt;CentersModule -->
<g id="edge1" class="edge">
<title>PrismaModule&#45;&gt;CentersModule</title>
<path fill="none" stroke="black" d="M202.03,-122.11C202.03,-122.11 202.03,-140.99 202.03,-140.99"/>
<polygon fill="black" stroke="black" points="198.53,-140.99 202.03,-150.99 205.53,-140.99 198.53,-140.99"/>
</g>
<!-- CentersService  -->
<g id="node3" class="node">
<title>CentersService </title>
<polygon fill="#fb8072" stroke="black" points="291.24,-252 186.76,-252 186.76,-216 291.24,-216 291.24,-252"/>
<text text-anchor="middle" x="239" y="-229.8" font-family="Times,serif" font-size="14.00">CentersService </text>
</g>
<!-- CentersModule&#45;&gt;CentersService  -->
<g id="edge2" class="edge">
<title>CentersModule&#45;&gt;CentersService </title>
<path fill="none" stroke="black" stroke-dasharray="5,2" d="M239,-187.11C239,-187.11 239,-205.99 239,-205.99"/>
<polygon fill="black" stroke="black" points="235.5,-205.99 239,-215.99 242.5,-205.99 235.5,-205.99"/>
</g>
<!-- CentersService -->
<g id="node4" class="node">
<title>CentersService</title>
<ellipse fill="#fdb462" stroke="black" cx="309" cy="-104" rx="69.48" ry="18"/>
<text text-anchor="middle" x="309" y="-99.8" font-family="Times,serif" font-size="14.00">CentersService</text>
</g>
<!-- CentersService&#45;&gt;CentersModule -->
<g id="edge3" class="edge">
<title>CentersService&#45;&gt;CentersModule</title>
<path fill="none" stroke="black" d="M264.83,-118.1C264.83,-118.1 264.83,-140.72 264.83,-140.72"/>
<polygon fill="black" stroke="black" points="261.33,-140.72 264.83,-150.72 268.33,-140.72 261.33,-140.72"/>
</g>
</g>
</svg>
