<?xml version="1.0" encoding="UTF-8" standalone="no"?>
<!DOCTYPE svg PUBLIC "-//W3C//DTD SVG 1.1//EN"
 "http://www.w3.org/Graphics/SVG/1.1/DTD/svg11.dtd">
<!-- Generated by graphviz version 2.47.0 (20210316.0004)
 -->
<!-- Title: dependencies Pages: 1 -->
<svg width="504pt" height="284pt"
 viewBox="0.00 0.00 504.00 284.00" xmlns="http://www.w3.org/2000/svg" xmlns:xlink="http://www.w3.org/1999/xlink">
<g id="graph0" class="graph" transform="scale(1 1) rotate(0) translate(4 280)">
<title>dependencies</title>
<polygon fill="white" stroke="transparent" points="-4,4 -4,-280 500,-280 500,4 -4,4"/>
<text text-anchor="start" x="227.01" y="-42.4" font-family="Times-12" font-weight="bold" font-size="14.00">Legend</text>
<polygon fill="#ffffb3" stroke="transparent" points="14,-10 14,-30 34,-30 34,-10 14,-10"/>
<text text-anchor="start" x="37.63" y="-15.4" font-family="Times-12" font-size="14.00"> &#160;Declarations</text>
<polygon fill="#8dd3c7" stroke="transparent" points="127,-10 127,-30 147,-30 147,-10 127,-10"/>
<text text-anchor="start" x="150.73" y="-15.4" font-family="Times-12" font-size="14.00"> &#160;Module</text>
<polygon fill="#80b1d3" stroke="transparent" points="213,-10 213,-30 233,-30 233,-10 213,-10"/>
<text text-anchor="start" x="236.78" y="-15.4" font-family="Times-12" font-size="14.00"> &#160;Bootstrap</text>
<polygon fill="#fdb462" stroke="transparent" points="310,-10 310,-30 330,-30 330,-10 310,-10"/>
<text text-anchor="start" x="333.67" y="-15.4" font-family="Times-12" font-size="14.00"> &#160;Providers</text>
<polygon fill="#fb8072" stroke="transparent" points="406,-10 406,-30 426,-30 426,-10 406,-10"/>
<text text-anchor="start" x="429.73" y="-15.4" font-family="Times-12" font-size="14.00"> &#160;Exports</text>
<g id="clust1" class="cluster">
<title>cluster_DonationRequestsModule</title>
<polygon fill="none" stroke="black" stroke-dasharray="1,5" points="60,-70 60,-268 436,-268 436,-70 60,-70"/>
</g>
<g id="clust4" class="cluster">
<title>cluster_DonationRequestsModule_exports</title>
<polygon fill="none" stroke="black" points="172,-208 172,-260 352,-260 352,-208 172,-208"/>
</g>
<g id="clust3" class="cluster">
<title>cluster_DonationRequestsModule_imports</title>
<polygon fill="none" stroke="black" points="314,-78 314,-130 428,-130 428,-78 314,-78"/>
</g>
<g id="clust6" class="cluster">
<title>cluster_DonationRequestsModule_providers</title>
<polygon fill="none" stroke="black" points="68,-78 68,-130 306,-130 306,-78 68,-78"/>
</g>
<!-- PrismaModule -->
<g id="node1" class="node">
<title>PrismaModule</title>
<polygon fill="#8dd3c7" stroke="black" points="420.43,-122 417.43,-126 396.43,-126 393.43,-122 321.57,-122 321.57,-86 420.43,-86 420.43,-122"/>
<text text-anchor="middle" x="371" y="-99.8" font-family="Times,serif" font-size="14.00">PrismaModule</text>
</g>
<!-- DonationRequestsModule -->
<g id="node2" class="node">
<title>DonationRequestsModule</title>
<polygon fill="#8dd3c7" stroke="black" points="343.2,-187 340.2,-191 319.2,-191 316.2,-187 180.8,-187 180.8,-151 343.2,-151 343.2,-187"/>
<text text-anchor="middle" x="262" y="-164.8" font-family="Times,serif" font-size="14.00">DonationRequestsModule</text>
</g>
<!-- PrismaModule&#45;&gt;DonationRequestsModule -->
<g id="edge1" class="edge">
<title>PrismaModule&#45;&gt;DonationRequestsModule</title>
<path fill="none" stroke="black" d="M332.44,-122.11C332.44,-122.11 332.44,-140.99 332.44,-140.99"/>
<polygon fill="black" stroke="black" points="328.94,-140.99 332.44,-150.99 335.94,-140.99 328.94,-140.99"/>
</g>
<!-- DonationRequestsService  -->
<g id="node3" class="node">
<title>DonationRequestsService </title>
<polygon fill="#fb8072" stroke="black" points="344.13,-252 179.87,-252 179.87,-216 344.13,-216 344.13,-252"/>
<text text-anchor="middle" x="262" y="-229.8" font-family="Times,serif" font-size="14.00">DonationRequestsService </text>
</g>
<!-- DonationRequestsModule&#45;&gt;DonationRequestsService  -->
<g id="edge2" class="edge">
<title>DonationRequestsModule&#45;&gt;DonationRequestsService </title>
<path fill="none" stroke="black" stroke-dasharray="5,2" d="M262,-187.11C262,-187.11 262,-205.99 262,-205.99"/>
<polygon fill="black" stroke="black" points="258.5,-205.99 262,-215.99 265.5,-205.99 258.5,-205.99"/>
</g>
<!-- DonationRequestsService -->
<g id="node4" class="node">
<title>DonationRequestsService</title>
<ellipse fill="#fdb462" stroke="black" cx="187" cy="-104" rx="110.59" ry="18"/>
<text text-anchor="middle" x="187" y="-99.8" font-family="Times,serif" font-size="14.00">DonationRequestsService</text>
</g>
<!-- DonationRequestsService&#45;&gt;DonationRequestsModule -->
<g id="edge3" class="edge">
<title>DonationRequestsService&#45;&gt;DonationRequestsModule</title>
<path fill="none" stroke="black" d="M239.35,-120.07C239.35,-120.07 239.35,-140.82 239.35,-140.82"/>
<polygon fill="black" stroke="black" points="235.85,-140.82 239.35,-150.82 242.85,-140.82 235.85,-140.82"/>
</g>
</g>
</svg>
