<?xml version="1.0" encoding="UTF-8" standalone="no"?>
<!DOCTYPE svg PUBLIC "-//W3C//DTD SVG 1.1//EN"
 "http://www.w3.org/Graphics/SVG/1.1/DTD/svg11.dtd">
<!-- Generated by graphviz version 2.47.0 (20210316.0004)
 -->
<!-- Title: dependencies Pages: 1 -->
<svg width="916pt" height="211pt"
 viewBox="0.00 0.00 916.00 211.00" xmlns="http://www.w3.org/2000/svg" xmlns:xlink="http://www.w3.org/1999/xlink">
<g id="graph0" class="graph" transform="scale(1 1) rotate(0) translate(4 207)">
<title>dependencies</title>
<polygon fill="white" stroke="transparent" points="-4,4 -4,-207 912,-207 912,4 -4,4"/>
<text text-anchor="start" x="433.01" y="-42.4" font-family="Times-12" font-weight="bold" font-size="14.00">Legend</text>
<polygon fill="#ffffb3" stroke="transparent" points="220,-10 220,-30 240,-30 240,-10 220,-10"/>
<text text-anchor="start" x="243.63" y="-15.4" font-family="Times-12" font-size="14.00"> &#160;Declarations</text>
<polygon fill="#8dd3c7" stroke="transparent" points="333,-10 333,-30 353,-30 353,-10 333,-10"/>
<text text-anchor="start" x="356.73" y="-15.4" font-family="Times-12" font-size="14.00"> &#160;Module</text>
<polygon fill="#80b1d3" stroke="transparent" points="419,-10 419,-30 439,-30 439,-10 419,-10"/>
<text text-anchor="start" x="442.78" y="-15.4" font-family="Times-12" font-size="14.00"> &#160;Bootstrap</text>
<polygon fill="#fdb462" stroke="transparent" points="516,-10 516,-30 536,-30 536,-10 516,-10"/>
<text text-anchor="start" x="539.67" y="-15.4" font-family="Times-12" font-size="14.00"> &#160;Providers</text>
<polygon fill="#fb8072" stroke="transparent" points="612,-10 612,-30 632,-30 632,-10 612,-10"/>
<text text-anchor="start" x="635.73" y="-15.4" font-family="Times-12" font-size="14.00"> &#160;Exports</text>
<g id="clust1" class="cluster">
<title>cluster_AppModule</title>
<polygon fill="none" stroke="black" stroke-dasharray="1,5" points="8,-70 8,-195 900,-195 900,-70 8,-70"/>
</g>
<g id="clust3" class="cluster">
<title>cluster_AppModule_imports</title>
<polygon fill="none" stroke="black" points="16,-78 16,-130 892,-130 892,-78 16,-78"/>
</g>
<!-- AuthModule -->
<g id="node1" class="node">
<title>AuthModule</title>
<polygon fill="#8dd3c7" stroke="black" points="883.55,-122 880.55,-126 859.55,-126 856.55,-122 796.45,-122 796.45,-86 883.55,-86 883.55,-122"/>
<text text-anchor="middle" x="840" y="-99.8" font-family="Times,serif" font-size="14.00">AuthModule</text>
</g>
<!-- AppModule -->
<g id="node8" class="node">
<title>AppModule</title>
<polygon fill="#8dd3c7" stroke="black" points="508.66,-187 505.66,-191 484.66,-191 481.66,-187 425.34,-187 425.34,-151 508.66,-151 508.66,-187"/>
<text text-anchor="middle" x="467" y="-164.8" font-family="Times,serif" font-size="14.00">AppModule</text>
</g>
<!-- AuthModule&#45;&gt;AppModule -->
<g id="edge1" class="edge">
<title>AuthModule&#45;&gt;AppModule</title>
<path fill="none" stroke="black" d="M840,-122.29C840,-144.21 840,-178 840,-178 840,-178 518.7,-178 518.7,-178"/>
<polygon fill="black" stroke="black" points="518.7,-174.5 508.7,-178 518.7,-181.5 518.7,-174.5"/>
</g>
<!-- CentersModule -->
<g id="node2" class="node">
<title>CentersModule</title>
<polygon fill="#8dd3c7" stroke="black" points="778.31,-122 775.31,-126 754.31,-126 751.31,-122 675.69,-122 675.69,-86 778.31,-86 778.31,-122"/>
<text text-anchor="middle" x="727" y="-99.8" font-family="Times,serif" font-size="14.00">CentersModule</text>
</g>
<!-- CentersModule&#45;&gt;AppModule -->
<g id="edge2" class="edge">
<title>CentersModule&#45;&gt;AppModule</title>
<path fill="none" stroke="black" d="M727,-122.11C727,-141.34 727,-169 727,-169 727,-169 518.77,-169 518.77,-169"/>
<polygon fill="black" stroke="black" points="518.77,-165.5 508.77,-169 518.77,-172.5 518.77,-165.5"/>
</g>
<!-- CitiesModule -->
<g id="node3" class="node">
<title>CitiesModule</title>
<polygon fill="#8dd3c7" stroke="black" points="658.22,-122 655.22,-126 634.22,-126 631.22,-122 565.78,-122 565.78,-86 658.22,-86 658.22,-122"/>
<text text-anchor="middle" x="612" y="-99.8" font-family="Times,serif" font-size="14.00">CitiesModule</text>
</g>
<!-- CitiesModule&#45;&gt;AppModule -->
<g id="edge3" class="edge">
<title>CitiesModule&#45;&gt;AppModule</title>
<path fill="none" stroke="black" d="M612,-122.03C612,-138.4 612,-160 612,-160 612,-160 518.94,-160 518.94,-160"/>
<polygon fill="black" stroke="black" points="518.94,-156.5 508.94,-160 518.94,-163.5 518.94,-156.5"/>
</g>
<!-- DonationRequestsModule -->
<g id="node4" class="node">
<title>DonationRequestsModule</title>
<polygon fill="#8dd3c7" stroke="black" points="548.2,-122 545.2,-126 524.2,-126 521.2,-122 385.8,-122 385.8,-86 548.2,-86 548.2,-122"/>
<text text-anchor="middle" x="467" y="-99.8" font-family="Times,serif" font-size="14.00">DonationRequestsModule</text>
</g>
<!-- DonationRequestsModule&#45;&gt;AppModule -->
<g id="edge4" class="edge">
<title>DonationRequestsModule&#45;&gt;AppModule</title>
<path fill="none" stroke="black" d="M467,-122.11C467,-122.11 467,-140.99 467,-140.99"/>
<polygon fill="black" stroke="black" points="463.5,-140.99 467,-150.99 470.5,-140.99 463.5,-140.99"/>
</g>
<!-- DonationsModule -->
<g id="node5" class="node">
<title>DonationsModule</title>
<polygon fill="#8dd3c7" stroke="black" points="367.6,-122 364.6,-126 343.6,-126 340.6,-122 250.4,-122 250.4,-86 367.6,-86 367.6,-122"/>
<text text-anchor="middle" x="309" y="-99.8" font-family="Times,serif" font-size="14.00">DonationsModule</text>
</g>
<!-- DonationsModule&#45;&gt;AppModule -->
<g id="edge5" class="edge">
<title>DonationsModule&#45;&gt;AppModule</title>
<path fill="none" stroke="black" d="M309,-122.03C309,-138.4 309,-160 309,-160 309,-160 415.07,-160 415.07,-160"/>
<polygon fill="black" stroke="black" points="415.07,-163.5 425.07,-160 415.07,-156.5 415.07,-163.5"/>
</g>
<!-- PrismaModule -->
<g id="node6" class="node">
<title>PrismaModule</title>
<polygon fill="#8dd3c7" stroke="black" points="232.43,-122 229.43,-126 208.43,-126 205.43,-122 133.57,-122 133.57,-86 232.43,-86 232.43,-122"/>
<text text-anchor="middle" x="183" y="-99.8" font-family="Times,serif" font-size="14.00">PrismaModule</text>
</g>
<!-- PrismaModule&#45;&gt;AppModule -->
<g id="edge6" class="edge">
<title>PrismaModule&#45;&gt;AppModule</title>
<path fill="none" stroke="black" d="M183,-122.11C183,-141.34 183,-169 183,-169 183,-169 415.09,-169 415.09,-169"/>
<polygon fill="black" stroke="black" points="415.09,-172.5 425.09,-169 415.09,-165.5 415.09,-172.5"/>
</g>
<!-- UsersModule -->
<g id="node7" class="node">
<title>UsersModule</title>
<polygon fill="#8dd3c7" stroke="black" points="115.92,-122 112.92,-126 91.92,-126 88.92,-122 24.08,-122 24.08,-86 115.92,-86 115.92,-122"/>
<text text-anchor="middle" x="70" y="-99.8" font-family="Times,serif" font-size="14.00">UsersModule</text>
</g>
<!-- UsersModule&#45;&gt;AppModule -->
<g id="edge7" class="edge">
<title>UsersModule&#45;&gt;AppModule</title>
<path fill="none" stroke="black" d="M70,-122.29C70,-144.21 70,-178 70,-178 70,-178 415.26,-178 415.26,-178"/>
<polygon fill="black" stroke="black" points="415.26,-181.5 425.26,-178 415.26,-174.5 415.26,-181.5"/>
</g>
</g>
</svg>
